<svg x="0px" y="0px" width="16" height="16" viewBox="0 0 64 64" xmlns="http://www.w3.org/2000/svg" xmlns:xlink="http://www.w3.org/1999/xlink">
    <style>
        path { fill: #51bd00 }
    </style>
    <path
        d="M33.4,49.6c0,0.1,0.2,0.2,0.2,0c0.6-1.8,2.6-5.2,9-5.2h15.8c0.4,0,0.8-0.3,0.8-0.8V15c0-0.4-0.3-0.8-0.8-0.8H40.7c0,0-7.3,0-7.3,7.7C33.4,28,33.4,45,33.4,49.6z" />
    <path
        d="M30.6,49.6c0,0.1-0.2,0.2-0.2,0c-0.6-1.8-2.6-5.2-9-5.2H5.5c-0.4,0-0.8-0.3-0.8-0.8V15c0-0.4,0.3-0.8,0.8-0.8h17.7c0,0,7.3,0,7.3,7.7C30.6,28,30.6,45,30.6,49.6z" />
</svg>